<svg xmlns="http://www.w3.org/2000/svg" xmlns:xlink="http://www.w3.org/1999/xlink" width="1080" zoomAndPan="magnify" viewBox="0 0 810 809.999993" height="1080" preserveAspectRatio="xMidYMid meet" version="1.0"><defs><clipPath id="02f210f8e9"><path d="M 48.769531 44 L 761.269531 44 L 761.269531 766 L 48.769531 766 Z M 48.769531 44 " clip-rule="nonzero"/></clipPath></defs><g clip-path="url(#02f210f8e9)"><path fill="currentColor" d="M 404.964844 44.640625 C 354.480469 44.640625 306.605469 55.230469 263.082031 74.417969 C 259.925781 75.796875 256.734375 77.285156 253.398438 78.769531 C 132.476562 136.476562 48.769531 260.839844 48.769531 404.976562 C 48.769531 604.054688 208.171875 765.417969 404.964844 765.417969 C 555.046875 765.417969 683.476562 671.515625 735.8125 538.554688 C 737.300781 535.289062 738.386719 531.917969 739.765625 528.652344 C 753.511719 490.0625 761.128906 448.425781 761.128906 404.976562 C 761.128906 206.003906 601.652344 44.640625 404.964844 44.640625 Z M 496.183594 335.011719 C 499.445312 298.488281 517.945312 270.597656 540.324219 270.597656 C 564.949219 270.597656 584.933594 304.546875 584.933594 346.398438 C 584.933594 388.144531 564.949219 422.09375 540.324219 422.09375 C 517.945312 422.09375 499.445312 394.203125 496.183594 357.789062 L 529.625 346.398438 Z M 225.070312 335.011719 C 228.335938 298.488281 246.832031 270.597656 269.210938 270.597656 C 293.839844 270.597656 313.820312 304.546875 313.820312 346.398438 C 313.820312 388.144531 293.839844 422.09375 269.210938 422.09375 C 246.832031 422.09375 228.335938 394.203125 225.070312 357.789062 L 258.511719 346.398438 Z M 707.703125 429.710938 L 679.996094 429.710938 C 677.925781 454.265625 672.886719 478.203125 664.652344 500.941406 L 663.566406 503.699219 C 662.984375 505.367188 662.296875 507.070312 661.570312 508.742188 C 619.535156 615.40625 518.816406 684.574219 405.039062 684.574219 C 261.667969 684.574219 142.269531 573.152344 129.902344 429.710938 L 104.476562 429.710938 L 104.476562 419.808594 L 168.492188 419.808594 L 168.492188 429.710938 L 139.910156 429.710938 C 152.171875 567.640625 267.144531 674.671875 405.074219 674.671875 C 514.789062 674.671875 611.84375 607.972656 652.539062 504.894531 C 653.226562 503.226562 653.808594 501.742188 654.425781 500.144531 L 655.511719 497.386719 C 663.238281 475.917969 668.0625 453.066406 670.164062 429.710938 L 643.835938 429.710938 L 643.835938 419.808594 L 707.742188 419.808594 L 707.742188 429.710938 Z M 707.703125 429.710938 " fill-opacity="1" fill-rule="nonzero"/></g></svg>