<svg xmlns="http://www.w3.org/2000/svg" xmlns:xlink="http://www.w3.org/1999/xlink" width="1080" zoomAndPan="magnify" viewBox="0 0 810 809.999993" height="1080" preserveAspectRatio="xMidYMid meet" version="1.0"><defs><clipPath id="e36359fd31"><path d="M 13.121094 360 L 408 360 L 408 452 L 13.121094 452 Z M 13.121094 360 " clip-rule="nonzero"/></clipPath><clipPath id="1d56bd0b43"><path d="M 13.121094 401 L 408 401 L 408 495 L 13.121094 495 Z M 13.121094 401 " clip-rule="nonzero"/></clipPath><clipPath id="29a525595e"><path d="M 402 358 L 796.871094 358 L 796.871094 450 L 402 450 Z M 402 358 " clip-rule="nonzero"/></clipPath><clipPath id="238bfb7dbf"><path d="M 402 315 L 796.871094 315 L 796.871094 409 L 402 409 Z M 402 315 " clip-rule="nonzero"/></clipPath></defs><path fill="#b5ff00" d="M 401.417969 407.59375 C 399.96875 405.636719 260.300781 207.484375 401.417969 11.417969 L 408.488281 16.53125 C 271.078125 207.441406 407.082031 400.609375 408.488281 402.527344 Z M 401.417969 407.59375 " fill-opacity="1" fill-rule="nonzero"/><path fill="#b5ff00" d="M 402.054688 408.277344 C 400.269531 406.65625 222.433594 241.898438 319.675781 20.746094 L 327.644531 24.238281 C 232.867188 239.726562 406.144531 400.226562 407.890625 401.84375 Z M 402.054688 408.277344 " fill-opacity="1" fill-rule="nonzero"/><path fill="#b5ff00" d="M 402.78125 408.832031 C 400.652344 407.59375 192.488281 283.429688 241.644531 46.898438 L 250.164062 48.6875 C 202.285156 278.957031 405.082031 400.097656 407.167969 401.292969 Z M 402.78125 408.832031 " fill-opacity="1" fill-rule="nonzero"/><path fill="#b5ff00" d="M 403.589844 409.214844 C 401.289062 408.445312 171.828125 330.242188 170.722656 88.683594 L 179.453125 88.644531 C 180.519531 324.023438 404.058594 400.183594 406.316406 400.90625 Z M 403.589844 409.214844 " fill-opacity="1" fill-rule="nonzero"/><path fill="#b5ff00" d="M 404.484375 409.382812 C 402.054688 409.128906 161.351562 380.375 110.066406 144.273438 L 118.585938 142.441406 C 168.507812 372.285156 403.078125 400.480469 405.421875 400.738281 Z M 404.484375 409.382812 " fill-opacity="1" fill-rule="nonzero"/><path fill="#b5ff00" d="M 385.359375 410.109375 C 325.085938 410.109375 144.695312 394.175781 62.316406 211.316406 L 70.242188 207.738281 C 166.890625 422.164062 402.183594 400.949219 404.527344 400.738281 L 405.421875 409.425781 C 404.996094 409.425781 397.667969 410.109375 385.359375 410.109375 Z M 385.359375 410.109375 " fill-opacity="1" fill-rule="nonzero"/><path fill="#b5ff00" d="M 303.320312 422.671875 C 222.988281 422.671875 111.601562 398.691406 29.519531 286.796875 L 36.546875 281.640625 C 175.664062 471.316406 401.375 401.632812 403.632812 400.90625 L 406.273438 409.214844 C 405.292969 409.511719 362.828125 422.671875 303.320312 422.671875 Z M 303.320312 422.671875 " fill-opacity="1" fill-rule="nonzero"/><g clip-path="url(#e36359fd31)"><path fill="#b5ff00" d="M 231.078125 451.851562 C 163.90625 451.851562 85.957031 432.429688 13.121094 367.429688 L 18.914062 360.910156 C 194.40625 517.492188 400.734375 402.441406 402.78125 401.25 L 407.125 408.789062 C 405.890625 409.554688 330.199219 451.851562 231.078125 451.851562 Z M 231.078125 451.851562 " fill-opacity="1" fill-rule="nonzero"/></g><g clip-path="url(#1d56bd0b43)"><path fill="#b5ff00" d="M 176.175781 494.277344 C 126.167969 494.277344 71.050781 482.390625 13.84375 449.722656 L 18.1875 442.140625 C 222.390625 558.851562 400.265625 403.378906 402.054688 401.800781 L 407.847656 408.320312 C 406.527344 409.46875 309.625 494.277344 176.175781 494.277344 Z M 176.175781 494.277344 " fill-opacity="1" fill-rule="nonzero"/></g><path fill="#b5ff00" d="M 134.941406 546.710938 C 102.824219 546.710938 68.367188 541.769531 31.691406 530.054688 L 34.332031 521.75 C 258.382812 593.394531 400.011719 404.402344 401.417969 402.484375 L 408.445312 407.636719 C 407.253906 409.300781 304.386719 546.710938 134.941406 546.710938 Z M 134.941406 546.710938 " fill-opacity="1" fill-rule="nonzero"/><path fill="#b5ff00" d="M 102.273438 606.769531 C 90.515625 606.769531 78.375 606.171875 65.851562 604.894531 L 66.707031 596.207031 C 301.277344 619.804688 400.011719 405.378906 400.992188 403.207031 L 408.914062 406.785156 C 407.976562 408.957031 316.527344 606.769531 102.273438 606.769531 Z M 102.273438 606.769531 " fill-opacity="1" fill-rule="nonzero"/><path fill="#b5ff00" d="M 114.796875 671.089844 L 113.859375 662.441406 C 347.832031 636.800781 400.183594 406.488281 400.695312 404.144531 L 409.210938 405.976562 C 408.703125 408.363281 354.945312 644.765625 114.796875 671.089844 Z M 114.796875 671.089844 " fill-opacity="1" fill-rule="nonzero"/><path fill="#b5ff00" d="M 176.472656 725.566406 L 173.746094 717.304688 C 397.117188 643.613281 400.609375 407.425781 400.609375 405.039062 L 409.339844 405.082031 C 409.296875 407.511719 405.890625 649.917969 176.472656 725.566406 Z M 176.472656 725.566406 " fill-opacity="1" fill-rule="nonzero"/><path fill="#b5ff00" d="M 248.074219 766.074219 L 243.6875 758.535156 C 446.996094 639.910156 401.164062 408.234375 400.695312 405.933594 L 409.210938 404.144531 C 409.722656 406.574219 456.792969 644.382812 248.074219 766.074219 Z M 248.074219 766.074219 " fill-opacity="1" fill-rule="nonzero"/><path fill="#b5ff00" d="M 326.578125 790.824219 L 320.742188 784.390625 C 494.828125 626.234375 401.929688 409 400.992188 406.828125 L 408.957031 403.292969 C 409.9375 405.507812 505.390625 628.367188 326.578125 790.824219 Z M 326.578125 790.824219 " fill-opacity="1" fill-rule="nonzero"/><path fill="#b5ff00" d="M 408.488281 798.703125 L 401.417969 793.59375 C 538.828125 602.679688 402.824219 409.511719 401.417969 407.59375 L 408.488281 402.484375 C 409.9375 404.484375 549.605469 602.59375 408.488281 798.703125 Z M 408.488281 798.703125 " fill-opacity="1" fill-rule="nonzero"/><path fill="#b5ff00" d="M 490.269531 789.332031 L 482.304688 785.839844 C 576.996094 570.519531 403.804688 409.894531 402.054688 408.277344 L 407.890625 401.800781 C 409.679688 403.464844 587.558594 568.222656 490.269531 789.332031 Z M 490.269531 789.332031 " fill-opacity="1" fill-rule="nonzero"/><path fill="#b5ff00" d="M 568.304688 763.222656 L 559.785156 761.433594 C 607.664062 531.164062 404.824219 410.023438 402.78125 408.832031 L 407.167969 401.292969 C 409.253906 402.527344 617.460938 526.691406 568.304688 763.222656 Z M 568.304688 763.222656 " fill-opacity="1" fill-rule="nonzero"/><path fill="#b5ff00" d="M 630.496094 721.476562 C 629.429688 486.269531 405.847656 409.9375 403.589844 409.214844 L 406.316406 400.949219 C 408.617188 401.71875 638.117188 479.878906 639.183594 721.476562 Z M 630.496094 721.476562 " fill-opacity="1" fill-rule="nonzero"/><path fill="#b5ff00" d="M 691.363281 667.679688 C 641.441406 437.835938 406.871094 409.640625 404.527344 409.382812 L 405.464844 400.695312 C 407.890625 400.949219 648.597656 429.703125 699.882812 665.808594 Z M 691.363281 667.679688 " fill-opacity="1" fill-rule="nonzero"/><path fill="#b5ff00" d="M 739.707031 602.382812 C 643.015625 387.917969 407.722656 409.128906 405.421875 409.382812 L 404.527344 400.695312 C 406.914062 400.4375 648.382812 378.546875 747.628906 598.761719 Z M 739.707031 602.382812 " fill-opacity="1" fill-rule="nonzero"/><path fill="#b5ff00" d="M 773.402344 528.480469 C 634.199219 338.71875 408.574219 408.488281 406.273438 409.214844 L 403.632812 400.90625 C 405.933594 400.183594 637.523438 328.496094 780.429688 523.324219 Z M 773.402344 528.480469 " fill-opacity="1" fill-rule="nonzero"/><g clip-path="url(#29a525595e)"><path fill="#b5ff00" d="M 790.992188 449.167969 C 615.414062 292.503906 409.171875 407.636719 407.125 408.832031 L 402.78125 401.292969 C 404.910156 400.054688 616.523438 281.855469 796.785156 442.695312 Z M 790.992188 449.167969 " fill-opacity="1" fill-rule="nonzero"/></g><g clip-path="url(#238bfb7dbf)"><path fill="#b5ff00" d="M 407.847656 408.320312 L 402.054688 401.84375 C 403.886719 400.226562 586.324219 240.578125 796.0625 360.441406 L 791.714844 368.023438 C 587.386719 251.144531 409.636719 406.699219 407.847656 408.320312 Z M 407.847656 408.320312 " fill-opacity="1" fill-rule="nonzero"/></g><path fill="#b5ff00" d="M 408.488281 407.636719 L 401.460938 402.484375 C 402.910156 400.523438 548.199219 206.375 778.257812 280.066406 L 775.574219 288.328125 C 551.480469 216.640625 409.894531 405.722656 408.488281 407.636719 Z M 408.488281 407.636719 " fill-opacity="1" fill-rule="nonzero"/><path fill="#b5ff00" d="M 408.957031 406.828125 L 401.035156 403.25 C 402.015625 401.035156 504.027344 180.988281 744.136719 205.140625 L 743.285156 213.828125 C 508.84375 190.273438 409.9375 404.65625 408.957031 406.828125 Z M 408.957031 406.828125 " fill-opacity="1" fill-rule="nonzero"/><path fill="#b5ff00" d="M 409.210938 405.976562 L 400.695312 404.144531 C 401.203125 401.757812 454.960938 165.355469 695.109375 139.03125 L 696.046875 147.679688 C 462.117188 173.363281 409.722656 403.632812 409.210938 405.976562 Z M 409.210938 405.976562 " fill-opacity="1" fill-rule="nonzero"/><path fill="#b5ff00" d="M 409.339844 405.082031 L 400.609375 405.039062 C 400.609375 402.613281 404.058594 160.203125 633.476562 84.511719 L 636.203125 92.773438 C 412.832031 166.464844 409.339844 402.695312 409.339844 405.082031 Z M 409.339844 405.082031 " fill-opacity="1" fill-rule="nonzero"/><path fill="#b5ff00" d="M 400.695312 405.933594 C 400.183594 403.546875 353.15625 165.738281 561.832031 44.003906 L 566.21875 51.542969 C 362.910156 170.128906 408.742188 401.84375 409.210938 404.144531 Z M 400.695312 405.933594 " fill-opacity="1" fill-rule="nonzero"/><path fill="#b5ff00" d="M 400.992188 406.828125 C 400.011719 404.570312 304.554688 181.753906 483.371094 19.296875 L 489.207031 25.730469 C 314.992188 184.011719 407.976562 401.121094 408.957031 403.292969 Z M 400.992188 406.828125 " fill-opacity="1" fill-rule="nonzero"/></svg>